<svg id="Capa_1" enable-background="new 0 0 512 512" height="512" viewBox="0 0 512 512" width="512" xmlns="http://www.w3.org/2000/svg"><path d="m241 195h30v91h-30z" fill="#766e6e"/><path d="m241 15h30v120h-30z" fill="#766e6e"/><path d="m256 15h15v120h-15z" fill="#5b5555"/><path d="m256 195h15v91h-15z" fill="#5b5555"/><path d="m226 271h60v181h-60z" fill="#ffb725"/><path d="m256 271h30v181h-30z" fill="#ff9100"/><path d="m451 165v136c0 32.999-27.001 60-60 60s-60-27.001-60-60v-136z" fill="#ff7c48"/><path d="m391 165h60v136c0 32.999-27.001 60-60 60z" fill="#ff415b"/><path d="m331 75h120v90h-120z" fill="#fff5f5"/><path d="m391 75h60v90h-60z" fill="#efe2dd"/><path d="m301 60h180v30h-180z" fill="#efe2dd"/><path d="m391 60h90v30h-90z" fill="#e1d3ce"/><path d="m181 165v136c0 32.999-27.001 60-60 60s-60-27.001-60-60v-136z" fill="#57d9d4"/><path d="m121 165h60v136c0 32.999-27.001 60-60 60z" fill="#26bfbf"/><path d="m61 75h120v90h-120z" fill="#fff5f5"/><path d="m121 75h60v90h-60z" fill="#efe2dd"/><path d="m286 150h195v30h-195z" fill="#766e6e"/><path d="m211 0h90v30h-90z" fill="#ffb725"/><path d="m31 60h180v30h-180z" fill="#efe2dd"/><path d="m256 0h45v30h-45z" fill="#ff9100"/><path d="m121 60h90v30h-90z" fill="#e1d3ce"/><path d="m31 150h195v30h-195z" fill="#766e6e"/><path d="m121 150h105v30h-105z" fill="#5b5555"/><path d="m391 150h90v30h-90z" fill="#5b5555"/><path d="m256 120c-24.901 0-45 20.099-45 45s20.099 45 45 45 45-20.099 45-45-20.099-45-45-45z" fill="#ffb725"/><path d="m301 165c0 24.901-20.099 45-45 45v-90c24.901 0 45 20.099 45 45z" fill="#ff9100"/><path d="m61 422v90h60v-30h270v30h60v-90z" fill="#766e6e"/><path d="m451 422v90h-60v-30h-135v-60z" fill="#5b5555"/></svg>