<svg xmlns="http://www.w3.org/2000/svg" width="1034.905" height="831.616" viewBox="0 0 1034.905 831.616">
  <g id="cont-img" transform="translate(2660 669)">
    <g id="cont-img-2" data-name="cont-img" transform="translate(-2660.008 -668.994)">
      <path id="Path_5984" data-name="Path 5984" d="M683.84,129.27C617.49,127.36,554.3,109.52,494,90S373.84,48.89,309.08,38.55c-41.65-6.65-89.28-7.59-122.84,11C153.94,67.44,143.51,98.33,137.9,127c-4.23,21.56-6.71,44.26,4.86,64.44,8,14,22.29,25.79,32.15,39.21,34.3,46.71,10.06,104.3-27.12,149.9-17.44,21.39-37.67,41.8-51.13,64.57S77,494,88.75,517.2c11.67,23,39.48,40.31,69.61,52.48,61.19,24.7,133.3,31.77,203.61,35.78,155.64,8.86,312.12,5,468.18,1.18,57.75-1.42,115.76-2.86,172.58-10.3,31.55-4.13,64.12-10.68,87-26.5,29.08-20.08,36.28-54.09,16.8-79.27-32.68-42.24-123-52.73-145.89-98.06-12.58-24.95.34-52.75,18.61-75.89,39.2-49.64,104.91-93.19,108.37-149.93,2.37-39-29.21-78-78.05-96.44-51.19-19.33-122.18-16.9-160,15.1C810.76,118.29,742.42,131,683.84,129.27Z" transform="translate(-82.53 -34.2)" fill="#738ed3" opacity="0.1"/>
      <ellipse id="Ellipse_108" data-name="Ellipse 108" cx="290.75" cy="29.32" rx="290.75" ry="29.32" transform="translate(144.7 772.97)" fill="#738ed3" opacity="0.1"/>
      <path id="Path_5985" data-name="Path 5985" d="M252,833.31S239.1,760.22,191.22,724c-20.09-15.2-34.79-35.87-41.21-59.41a179.251,179.251,0,0,1-5.78-34.1" transform="translate(-82.53 -34.2)" fill="none" stroke="#535461" stroke-miterlimit="10" stroke-width="2"/>
      <path id="Path_5986" data-name="Path 5986" d="M114.21,607.49c4,7.83,30.73,23.68,30.73,23.68s3.36-29.61-.67-37.45-14-11.11-22.32-7.31S110.18,599.65,114.21,607.49Z" transform="translate(-82.53 -34.2)" fill="#738ed3"/>
      <path id="Path_5987" data-name="Path 5987" d="M111.66,662.28c7.9,4.51,39.44,4.11,39.44,4.11S136.87,639.81,129,635.3s-18.16-2.13-22.94,5.32A15.268,15.268,0,0,0,111.66,662.28Z" transform="translate(-82.53 -34.2)" fill="#738ed3"/>
      <path id="Path_5988" data-name="Path 5988" d="M150.87,736c9.22.13,36.23-15.25,36.23-15.25s-26.49-16.16-35.72-16.3-16.82,6.82-17,15.53S141.64,735.84,150.87,736Z" transform="translate(-82.53 -34.2)" fill="#738ed3"/>
      <path id="Path_5989" data-name="Path 5989" d="M193.83,785.43c9.06,1.61,38.44-9.25,38.44-9.25S209.05,756,200,754.42s-17.8,4-19.5,12.6S184.76,783.83,193.83,785.43Z" transform="translate(-82.53 -34.2)" fill="#738ed3"/>
      <path id="Path_5990" data-name="Path 5990" d="M183.44,653.45c-3.15,8.19-28,26.55-28,26.55s-6.58-29.12-3.43-37.31,12.74-12.42,21.41-9.45S186.59,645.27,183.44,653.45Z" transform="translate(-82.53 -34.2)" fill="#738ed3"/>
      <path id="Path_5991" data-name="Path 5991" d="M232.91,711.89c-5.6,6.93-35.12,17.43-35.12,17.43s3-29.65,8.56-36.57a17.38,17.38,0,0,1,23.42-3,15.2,15.2,0,0,1,3.14,22.14Z" transform="translate(-82.53 -34.2)" fill="#738ed3"/>
      <path id="Path_5992" data-name="Path 5992" d="M272.73,774.92c-4.28,7.72-31.49,22.78-31.49,22.78s-2.39-29.69,1.89-37.41,14.37-10.7,22.55-6.66S277,767.2,272.73,774.92Z" transform="translate(-82.53 -34.2)" fill="#738ed3"/>
      <path id="Path_5993" data-name="Path 5993" d="M114.21,607.49c4,7.83,30.73,23.68,30.73,23.68s3.36-29.61-.67-37.45-14-11.11-22.32-7.31S110.18,599.65,114.21,607.49Z" transform="translate(-82.53 -34.2)" opacity="0.25"/>
      <path id="Path_5994" data-name="Path 5994" d="M111.66,662.28c7.9,4.51,39.44,4.11,39.44,4.11S136.87,639.81,129,635.3s-18.16-2.13-22.94,5.32A15.268,15.268,0,0,0,111.66,662.28Z" transform="translate(-82.53 -34.2)" opacity="0.25"/>
      <path id="Path_5995" data-name="Path 5995" d="M150.87,736c9.22.13,36.23-15.25,36.23-15.25s-26.49-16.16-35.72-16.3-16.82,6.82-17,15.53S141.64,735.84,150.87,736Z" transform="translate(-82.53 -34.2)" opacity="0.25"/>
      <path id="Path_5996" data-name="Path 5996" d="M193.83,785.43c9.06,1.61,38.44-9.25,38.44-9.25S209.05,756,200,754.42s-17.8,4-19.5,12.6S184.76,783.83,193.83,785.43Z" transform="translate(-82.53 -34.2)" opacity="0.25"/>
      <path id="Path_5997" data-name="Path 5997" d="M183.44,653.45c-3.15,8.19-28,26.55-28,26.55s-6.58-29.12-3.43-37.31,12.74-12.42,21.41-9.45S186.59,645.27,183.44,653.45Z" transform="translate(-82.53 -34.2)" opacity="0.25"/>
      <path id="Path_5998" data-name="Path 5998" d="M232.91,711.89c-5.6,6.93-35.12,17.43-35.12,17.43s3-29.65,8.56-36.57a17.38,17.38,0,0,1,23.42-3,15.2,15.2,0,0,1,3.14,22.14Z" transform="translate(-82.53 -34.2)" opacity="0.25"/>
      <path id="Path_5999" data-name="Path 5999" d="M272.73,774.92c-4.28,7.72-31.49,22.78-31.49,22.78s-2.39-29.69,1.89-37.41,14.37-10.7,22.55-6.66S277,767.2,272.73,774.92Z" transform="translate(-82.53 -34.2)" opacity="0.25"/>
      <path id="Path_6000" data-name="Path 6000" d="M250.38,831.39s19.57-71.76-8.65-123.2c-11.84-21.58-16.41-46.1-12.17-70.08a180,180,0,0,1,9.35-33.38" transform="translate(-82.53 -34.2)" fill="none" stroke="#535461" stroke-miterlimit="10" stroke-width="2"/>
      <path id="Path_6001" data-name="Path 6001" d="M221.33,572.22c.32,8.7,17.93,33.41,17.93,33.41s15.78-25.79,15.46-34.5-8.05-15.52-17.27-15.22S221,563.51,221.33,572.22Z" transform="translate(-82.53 -34.2)" fill="#738ed3"/>
      <path id="Path_6002" data-name="Path 6002" d="M195.49,621.34c5.28,7.14,34.28,18.84,34.28,18.84s-1.6-29.74-6.88-36.89a17.35,17.35,0,0,0-23.26-3.91,15.23,15.23,0,0,0-4.14,21.96Z" transform="translate(-82.53 -34.2)" fill="#738ed3"/>
      <path id="Path_6003" data-name="Path 6003" d="M199.69,703.71c8.38,3.65,39.68-.07,39.68-.07s-17.29-24.92-25.67-28.57-18.3-.2-22.17,7.71S191.32,700.06,199.69,703.71Z" transform="translate(-82.53 -34.2)" fill="#738ed3"/>
      <path id="Path_6004" data-name="Path 6004" d="M217.74,765.36c7.61,4.94,39.12,6.25,39.12,6.25s-12.58-27.31-20.18-32.24a17.33,17.33,0,0,0-23.23,4,15.23,15.23,0,0,0,4.29,21.99Z" transform="translate(-82.53 -34.2)" fill="#738ed3"/>
      <path id="Path_6005" data-name="Path 6005" d="M264.9,640.73c-6.4,6.28-37,13.57-37,13.57s6.49-29.15,12.88-35.43a17.42,17.42,0,0,1,23.63-.44,15.16,15.16,0,0,1,.49,22.3Z" transform="translate(-82.53 -34.2)" fill="#738ed3"/>
      <path id="Path_6006" data-name="Path 6006" d="M285,713.08c-8.09,4.19-39.58,2.5-39.58,2.5s15.43-26,23.52-30.16,18.25-1.39,22.68,6.25S293.13,708.89,285,713.08Z" transform="translate(-82.53 -34.2)" fill="#738ed3"/>
      <path id="Path_6007" data-name="Path 6007" d="M294.39,785.94c-7.23,5.42-38.57,8.78-38.57,8.78s10.56-28.07,17.79-33.49a17.38,17.38,0,0,1,23.47,2.55,15.19,15.19,0,0,1-2.69,22.16Z" transform="translate(-82.53 -34.2)" fill="#738ed3"/>
      <path id="Path_6009" data-name="Path 6009" d="M795.34,424.61s5.47-28.7,23.08-28.85l12.87,26.48-8.58,5.92S804.07,428.75,795.34,424.61Z" transform="translate(-82.53 -34.2)" fill="#65617d"/>
      <path id="Path_6010" data-name="Path 6010" d="M831.29,422.24l-8.58,5.92s-13.12.42-22.5-1.89a26.922,26.922,0,0,1-4.87-1.66,1.639,1.639,0,0,1,.1-.46v-.11a64.754,64.754,0,0,1,3.33-10.54c.55-1.29,1.16-2.62,1.82-3.95,2.58-5,6.2-9.82,11.16-12.23a15.17,15.17,0,0,1,5.87-1.53h.78l.28.59,4.35,8.94Z" transform="translate(-82.53 -34.2)" opacity="0.1"/>
      <path id="Path_6011" data-name="Path 6011" d="M977.45,541.48s18.5-1.77,20.12-.44,12.13,8.13,18.35,3.84,2.07-19.23,2.07-19.82-.59-21.75-.59-21.75l-11.1-14.94-13.9-26.18L964,459.37l.74,41.58-.15,21.3Z" transform="translate(-82.53 -34.2)" fill="#65617d"/>
      <path id="Path_6012" data-name="Path 6012" d="M977.45,541.48s18.5-1.77,20.12-.44,12.13,8.13,18.35,3.84,2.07-19.23,2.07-19.82-.59-21.75-.59-21.75l-11.1-14.94-13.9-26.18L964,459.37l.74,41.58-.15,21.3Z" transform="translate(-82.53 -34.2)" opacity="0.1"/>
      <path id="Path_6013" data-name="Path 6013" d="M814.72,395s-1.48,18.05-12.72,18.34c0,0-3.19-1.92-7.48-5.12-9.88-7.39-25.55-21.6-21.22-34.82,6.21-18.93,36.39,16,36.39,16L812,392Z" transform="translate(-82.53 -34.2)" fill="#ea9772"/>
      <path id="Path_6014" data-name="Path 6014" d="M814.72,395s-1.48,18.05-12.72,18.34c0,0-3.19-1.92-7.48-5.12l-.95-1.23a14.791,14.791,0,0,0,6.16,1.66,8.33,8.33,0,0,0,8-5.07,63.509,63.509,0,0,0,3.11-7.16A20.868,20.868,0,0,0,812,392Z" transform="translate(-82.53 -34.2)" opacity="0.1"/>
      <path id="Path_6015" data-name="Path 6015" d="M809.84,427.72l-2.53-3.26-8.52-11-4.34-5.61a14.621,14.621,0,0,0,6.16,1.66,8.241,8.241,0,0,0,8-5.06,64.609,64.609,0,0,0,3.11-7.17c1.4-4,1.38-6,.88-6.73s3.14,2.68,4.89,4.34l.06.06.82.77.3.6,4.29,8.57v.36C823.38,408,824.83,425.27,809.84,427.72Z" transform="translate(-82.53 -34.2)" fill="#e7effd"/>
      <path id="Path_6016" data-name="Path 6016" d="M898.46,808.51s-12.43,8.14-18.64,7-12.58,2.08-12.58,2.08a37.48,37.48,0,0,1-15.69,10.21c-10,3.4-24.1,2.06-32.09-.6-3.78-1.26-4.09-2.88-2.27-4.89,2-2.24,6.66-4.93,12-8.13,10.21-6.06,21.15-18,21.15-18s.15-3,1.93-4.28a23.054,23.054,0,0,0,3-3.12c1.59-1.88,3.08-3.84,3.08-3.84L894.91,786s.62,2.63,1.11,5.32a19.27,19.27,0,0,1,.51,5.33,4.82,4.82,0,0,0,1,3.69l.66,6Z" transform="translate(-82.53 -34.2)" fill="#333"/>
      <path id="Path_6017" data-name="Path 6017" d="M974.94,818.72c-.44,1.77-1,4.94-1.21,6.43l-.13.82s-3,6.51-19.37,8.88-16.42-5.48-16.42-5.48.06-.84.16-2.11c.29-3.46.88-10.09,1.32-11.5.58-1.92-.45-10.36-.45-10.36l-.17-8.81-.13-6.12,27.23-2.82a49.415,49.415,0,0,0,.88,6.06,7.749,7.749,0,0,0,1.19,3.11c1.48,1.63,2.36,8.88,2.36,8.88S975.53,816.35,974.94,818.72Z" transform="translate(-82.53 -34.2)" fill="#333"/>
      <path id="Path_6018" data-name="Path 6018" d="M894.91,786s.62,2.63,1.11,5.32c-3.95.73-21.21,3.72-25.52,1.63-4.89-2.37-15.39-3.7-15.39-3.7l.17-.6c1.59-1.88,3.08-3.84,3.08-3.84Z" transform="translate(-82.53 -34.2)" opacity="0.1"/>
      <path id="Path_6019" data-name="Path 6019" d="M966.65,793.71c-6.9-1.17-22,1.66-28,2.88l-.13-6.12,27.23-2.82A49.415,49.415,0,0,0,966.65,793.71Z" transform="translate(-82.53 -34.2)" opacity="0.1"/>
      <path id="Path_6020" data-name="Path 6020" d="M982,569.44l-.59,20.86s.74,31.81-1.48,36.84-2.22,25.3-2.22,25.3,1.48,9.61-.15,11.68-.44,9.76.74,13.76.15,13.91.15,13.91l-.3,55.92s-1.62,14.49-3.7,16.57a4.85,4.85,0,0,0-1.18,4.73s-1.77,8.28-1.33,9.77,1.33,4.88-2.07,6.5-2.52,6.81-2.52,6.81c-8.13-1.93-31.21,3.26-31.21,3.26a138.851,138.851,0,0,1-6.51-15.84,8.19,8.19,0,0,1,5.92-10.79c3.1-.45-2.22-5.92-2.22-5.92s.59-.74-.89-6.06.29-19,.74-22.5,2.66-20.71,2.66-20.71-1.18-21.74-.29-22.63,3.84-9.47,2.37-12.28-3.86-21.3-3.86-22.34-1.91-25-1.91-25-1.78-16.72-1.33-20.27-1.19-16.71-1.19-16.71c0-11-6.36-22.79-6.36-22.79l-.16.43L909.4,608.06s-2.22,10.94-4.14,17.15a112.18,112.18,0,0,0-2.89,12.85l-.13.79a5,5,0,0,1-.13.83l-.09.6h0s1,7.84-.6,10.36-3.4,10.06-3.4,12.13.15,10.06.15,10.06.59,15.83-1,17.61-.75,3.25-.75,3.25,2.66,12,1.48,15.09-.29,10.35-.29,10.35-2.37,22.94-2.66,24.12-1.93,10.36-.15,11.1,5.17,5.17,5.17,5.17.75,19.39-1.92,20.86-1.19,9-1.19,9-21.44,4.14-26.32,1.77-15.39-3.7-15.39-3.7l1.47-4.86c-.09.17-1.07,1.75-1.77-4.31-.73-6.36,5.48-3.26,5.48-3.26s4.88,1.19-3-6.5-4-15.54-3.55-15.54,1.49-11.38,1.49-11.38,1.33-6.81.29-12.14-1.92-21.9-1.92-21.9.74-12.57-.59-17.15.88-12.88,1.33-14.8S853,656.13,853,656.13s1.48-8.28.59-14.34.89-28.41.89-28.41l2.66-25.74s1.92-8,1.63-11.25S861,561.75,861,561.75a16,16,0,0,1,1.18-7.1c1.48-3,2.07-12.72,2.07-12.72l14.21-32.55,7-28.7,93.93-.89s.35,2.49.92,7,1.37,11.21,2.26,19.48c.82,7.51,1.72,16.34,2.59,26.17C988,563.82,982,569.44,982,569.44Z" transform="translate(-82.53 -34.2)" fill="#39447a"/>
      <path id="Path_6021" data-name="Path 6021" d="M973.31,310.4l-21.9,23.38s-28.1-11.25-25.14-15.09c1.14-1.49,1-6.19.3-11.37-1-8.2-3.26-17.63-3.26-17.63s49.11-8,45,.29c-1.51,3-1.25,6.56-.31,9.83A37,37,0,0,0,973.31,310.4Z" transform="translate(-82.53 -34.2)" fill="#ea9772"/>
      <path id="Path_6022" data-name="Path 6022" d="M968.28,290c-1.51,3-2.23,3.32-1.29,6.59C960.57,303.46,952.4,311,942.24,311a35.06,35.06,0,0,1-15.67-3.67c-1-8.2-3.26-17.63-3.26-17.63S972.42,281.7,968.28,290Z" transform="translate(-82.53 -34.2)" opacity="0.1"/>
      <path id="Path_6023" data-name="Path 6023" d="M977.46,274.89a35.217,35.217,0,1,1-70.435,0c.005-.17.005-.34.005-.5a35.211,35.211,0,1,1,70.42.5Z" transform="translate(-82.53 -34.2)" fill="#ea9772"/>
      <path id="Path_6024" data-name="Path 6024" d="M982.55,507.18c-4.66,0-20.19.17-37.55.44h-.21l-5.73.1h-.18c-20.58.33-40.87-3.69-49-2.93-17.3,1.62,6.22-16,6.22-16a144.78,144.78,0,0,0,39.43,4l5-.26c15.72-.89,31.53-2.37,39.79-4.85C980.87,492.26,981.66,498.91,982.55,507.18Z" transform="translate(-82.53 -34.2)" opacity="0.1"/>
      <path id="Path_6025" data-name="Path 6025" d="M982.55,506.29c-4.66,0-20.19.17-37.55.44h-.21l-5.73.1h-.18c-20.58.33-40.87-3.69-49-2.93-17.3,1.63,6.22-16,6.22-16a144.781,144.781,0,0,0,39.43,4l5-.26c15.72-.89,31.53-2.37,39.79-4.84C980.87,491.38,981.66,498,982.55,506.29Z" transform="translate(-82.53 -34.2)" fill="#5f5d7e"/>
      <path id="Path_6026" data-name="Path 6026" d="M932.78,320.16l-27.22,12.73-21,162.43s12.42-5.62,19.53-2.07,29,.3,29,.3,16-.89,18.35.89S981.6,487,981.6,487s5-11.24,1.18-13S984,454.79,984,454.79l-2.4-117.17-4.74-15.09-12.72-7.69-13,10.35-6.21.89Z" transform="translate(-82.53 -34.2)" opacity="0.1"/>
      <path id="Path_6027" data-name="Path 6027" d="M932.78,318.39l-27.22,12.72-21,162.44s12.42-5.62,19.53-2.07,29,.29,29,.29,16-.88,18.35.89,30.18-7.4,30.18-7.4,5-11.24,1.18-13S984,453,984,453l-2.4-117.16-4.74-15.08-12.72-7.7-13,10.36-6.21.89Z" transform="translate(-82.53 -34.2)" fill="#e7effd"/>
      <path id="Path_6028" data-name="Path 6028" d="M932.33,325.93s7.84,9.32,7.7,11.25-.45,6.51-.45,6.51l-5.92,12s-3.25,14.94-3.25,18.05-5.18,30-5.18,30L919,445.17l-7.84,54.3,8,13.75,9.46-8,12.58-96.76,2.66-19.08s2.81-34.32,2.81-37.87-1.62-12.87-1.62-12.87,1.92-8.88,9.91-11-.59-.45-.59-.45l-4.59-3.69-4,1.62S934.7,321.79,932.33,325.93Z" transform="translate(-82.53 -34.2)" opacity="0.1"/>
      <path id="Path_6029" data-name="Path 6029" d="M931.44,325.05s7.85,9.32,7.7,11.24-.45,6.51-.45,6.51l-5.91,12s-3.26,14.94-3.26,18.05-5.18,30-5.18,30l-6.21,41.42-7.84,54.3,8,13.76,9.47-8,12.57-96.75L943,388.51s2.81-34.32,2.81-37.87-1.62-12.87-1.62-12.87,1.92-8.88,9.91-10.95-.59-.44-.59-.44l-4.59-3.7-4,1.63S933.81,320.9,931.44,325.05Z" transform="translate(-82.53 -34.2)" fill="#f55f44"/>
      <path id="Path_6030" data-name="Path 6030" d="M926.27,309.51s-1.19.89-1.48,6.81-4.44,19.23-4.44,19.23,15.39-10.65,23.08-9.47Z" transform="translate(-82.53 -34.2)" opacity="0.1"/>
      <path id="Path_6031" data-name="Path 6031" d="M926.27,307.74s-1.19.88-1.48,6.8-4.44,19.23-4.44,19.23,15.39-10.65,23.08-9.46Z" transform="translate(-82.53 -34.2)" fill="#e7effd"/>
      <path id="Path_6032" data-name="Path 6032" d="M968.28,304.78,944,326.08s20.42,12.13,23.08,15.09,5.32-29,5.32-29Z" transform="translate(-82.53 -34.2)" opacity="0.1"/>
      <path id="Path_6033" data-name="Path 6033" d="M969.17,303l-24.26,21.31S965.32,336.44,968,339.4s5.32-29,5.32-29Z" transform="translate(-82.53 -34.2)" fill="#e7effd"/>
      <path id="Path_6034" data-name="Path 6034" d="M927.15,309.51s-2.66-1.33-5.17,2.52a16.8,16.8,0,0,1-7.25,5.62s-26.93,4.29-28,7.84l-12.58.74s-4.44.59-4.88,9.91-2.81,10.21-2.81,10.21-5.18,9.17-4.73,13.9-4,7.11-4,7.11l18.49,48.08s.6,19.82-2.81,27.07-9.76,39.35-9.76,39.35,2.66-.59,2.51,1.18S863,504.2,863,504.2s-.89,7.69-2.37,10.36S859,531.12,859,531.12l-2.36,10.06s5.62,12.58,14.2,10.8,24.11-35.35,24.11-35.35l9.92-36.25,7.69-35.8,2.22-24.26,3.55-53.7,5.18-35.51S929.23,312,927.15,309.51Z" transform="translate(-82.53 -34.2)" opacity="0.1"/>
      <path id="Path_6035" data-name="Path 6035" d="M926.27,307.74s-2.67-1.33-5.18,2.51a16.71,16.71,0,0,1-7.25,5.62s-26.92,4.29-28,7.84l-12.58.74s-4.43.6-4.88,9.92-2.81,10.2-2.81,10.2-5.18,9.18-4.73,13.91-4,7.1-4,7.1l18.5,48.08s.59,19.82-2.81,27.07-9.77,39.36-9.77,39.36,2.66-.6,2.52,1.18-3.26,21.15-3.26,21.15-.89,7.7-2.37,10.36-1.62,16.57-1.62,16.57l-2.37,10.06s5.62,12.57,14.2,10.8S894,514.85,894,514.85l9.91-36.24,7.69-35.8,2.22-24.27,3.55-53.7,5.18-35.5S928.34,310.25,926.27,307.74Z" transform="translate(-82.53 -34.2)" fill="#39447a"/>
      <path id="Path_6036" data-name="Path 6036" d="M831.29,422.24l-8.58,5.92s-13.12.42-22.5-1.89l-4.77-2.12-1-.42,1,.31c4.95,1.47,8.82,1.44,11.85.42,12.14-4.09,10.8-24.14,10.33-28.67a3.79,3.79,0,0,0-.1-.86.281.281,0,0,1,0-.06l.07.12a6.617,6.617,0,0,0,.56.78c.17.19.35.39.54.58h0l4.29,8.57v.36Z" transform="translate(-82.53 -34.2)" opacity="0.1"/>
      <path id="Path_6037" data-name="Path 6037" d="M861,364.4l-4.15,1.18-.59,8.43s-4.88-.74-6.21,5-3.7,8.44-3.7,8.44-8.14,6.8-8.58,12.57l-5,3.11s-11.69-2.67-14.35-7.4c0,0,5.33,38.17-23.08,28.85,0,0,31.81,13.9,33.29,15.83s11.24,7.54,20.12,2.81,10.8-12,10.8-12,8.58-12,8.87-13.76,7-3.85,7-3.85l12.72-30.77Z" transform="translate(-82.53 -34.2)" fill="#39447a"/>
      <path id="Path_6038" data-name="Path 6038" d="M964.88,322.53,969.17,303s1.92,6.36,3.85,7.84l6.36,4.89s6.36,2.95,8.58,2.95,14.2,3.11,15.68,4.74,7.4.44,7.4.44,4.88,1.63,9.17,2.66,6.36,8.14,5.47,11a8.53,8.53,0,0,0,2.07,8c1.78,1.78,2.67,7.55,2.67,7.55a8.66,8.66,0,0,1,5,4.29c1.48,3.25,1,10.35,1,10.35l-22,31.07s.29,12-.59,14.65,3.1,47.93,3.1,47.93l4.59,77.81s-6.07,5.18-7.4,5.77-2.66-27.51-2.66-28.55-34.17-51.19-34.17-51.19-4.59-7.39-4.59-9-4.29-16.57-4.29-16.57l-6.51-28.85Z" transform="translate(-82.53 -34.2)" opacity="0.1"/>
      <path id="Path_6039" data-name="Path 6039" d="M1038.31,366v1.7l-22,31h0s.3,12-.58,14.64c-.52,1.55.61,17.47,1.66,30.55.74,9.43,1.44,17.38,1.44,17.38l1.95,33,2.63,44.8s-6.06,5.18-7.39,5.77-2.66-27.51-2.66-28.55-34.18-51.18-34.18-51.18-4.59-7.41-4.59-9-4.29-16.57-4.29-16.57l-6.5-28.85,2.95-88.17L969.17,303s3.7,6.37,5.62,7.84l6.36,4.88s6.36,3,8.58,3,14.21,3.1,15.69,4.73,7.39.44,7.39.44,4.88,1.63,9.17,2.66,6.37,8.14,5.48,11a8.51,8.51,0,0,0,2.07,8c1.77,1.77,2.66,7.54,2.66,7.54a8.7,8.7,0,0,1,5,4.3C1038.25,359.54,1038.35,363.65,1038.31,366Z" transform="translate(-82.53 -34.2)" fill="#39447a"/>
      <path id="Path_6040" data-name="Path 6040" d="M857.48,760.14c.73,0,31.8,1.18,31.21,6.21S857.48,760.14,857.48,760.14Z" transform="translate(-82.53 -34.2)" opacity="0.1"/>
      <path id="Path_6041" data-name="Path 6041" d="M864.43,768.57s20.86,3.4,15.38,6.51S864.43,768.57,864.43,768.57Z" transform="translate(-82.53 -34.2)" opacity="0.1"/>
      <path id="Path_6042" data-name="Path 6042" d="M942,756.88s34.62,3,29.44,6.81-17.46,4.43-18,4.58S942,756.88,942,756.88Z" transform="translate(-82.53 -34.2)" opacity="0.1"/>
      <path id="Path_6043" data-name="Path 6043" d="M937.81,772.12s19.23,3.25,19.82,7S937.81,772.12,937.81,772.12Z" transform="translate(-82.53 -34.2)" opacity="0.1"/>
      <path id="Path_6044" data-name="Path 6044" d="M948.46,683.06s17.6,4.14,18.64,7Z" transform="translate(-82.53 -34.2)" opacity="0.1"/>
      <path id="Path_6045" data-name="Path 6045" d="M880.55,695.78s-9.17,2.66-.29,8S880.55,695.78,880.55,695.78Z" transform="translate(-82.53 -34.2)" opacity="0.1"/>
      <path id="Path_6046" data-name="Path 6046" d="M921.24,553.61c1,0,17.16-5.32,22.78-3A37.488,37.488,0,0,0,956.59,553Z" transform="translate(-82.53 -34.2)" opacity="0.1"/>
      <path id="Path_6047" data-name="Path 6047" d="M923.31,570.47l-.16,1.47L909.4,608.06s-2.22,10.94-4.14,17.15a112.18,112.18,0,0,0-2.89,12.85l12.21-75.72Z" transform="translate(-82.53 -34.2)" opacity="0.1"/>
      <path id="Path_6048" data-name="Path 6048" d="M944.79,506.73l-5.73.1h-.18l-3.36-14.91,5-.27Z" transform="translate(-82.53 -34.2)" fill="#3f3d56"/>
      <path id="Path_6049" data-name="Path 6049" d="M1014.59,488.67l-3.69,3L998.61,501.8s-33.29,17.76-42.46.89c-8.08-14.86,29.66-25.47,38.75-27.78,1.23-.31,1.93-.47,1.93-.47Z" transform="translate(-82.53 -34.2)" fill="#ea9772"/>
      <path id="Path_6050" data-name="Path 6050" d="M872.42,343.24s6.51,3,8,7.1S872.42,343.24,872.42,343.24Z" transform="translate(-82.53 -34.2)" opacity="0.1"/>
      <path id="Path_6051" data-name="Path 6051" d="M852.3,387.62s-9.47,11.54-5.62,16S852.3,387.62,852.3,387.62Z" transform="translate(-82.53 -34.2)" opacity="0.1"/>
      <path id="Path_6052" data-name="Path 6052" d="M1021.54,349.75s-8.88.89-9.17,8.58Z" transform="translate(-82.53 -34.2)" opacity="0.1"/>
      <path id="Path_6053" data-name="Path 6053" d="M939.29,471.06c.88-.89,21.3-31.07,26-28.4Z" transform="translate(-82.53 -34.2)" opacity="0.1"/>
      <path id="Path_6056" data-name="Path 6056" d="M1014.59,488.67l-3.69,3c-3.25-5.4-16.58-16.2-16.58-16.2l.58-.56c1.23-.31,1.93-.47,1.93-.47Z" transform="translate(-82.53 -34.2)" opacity="0.1"/>
      <path id="Path_6057" data-name="Path 6057" d="M1018.14,483.19s-1.33,3.3-2.69,6.14-2.86,5.44-2.93,3.33c-.15-4.14-17.31-18.05-17.31-18.05l2.33-2.26,2.69-2.62Z" transform="translate(-82.53 -34.2)" fill="#e7effd"/>
      <path id="Path_6058" data-name="Path 6058" d="M1018.73,461.29l1.95,33c-4.6-7.15-17.22-25.47-25.33-24.88L1015,446.8a26.8,26.8,0,0,0,2.26-2.89C1018,453.34,1018.73,461.29,1018.73,461.29Z" transform="translate(-82.53 -34.2)" opacity="0.1"/>
      <path id="Path_6059" data-name="Path 6059" d="M1018.14,483.19s-1.33,3.3-2.69,6.14c-5.16-7.07-12.25-15.42-17.91-17l2.69-2.62Z" transform="translate(-82.53 -34.2)" opacity="0.1"/>
      <path id="Path_6060" data-name="Path 6060" d="M1032.93,363.51l5.33,4.14s8.87.15,9.76,7.55,9,10.8,9,10.8,6.06,6.06,6.06,8.87,4.59,7.84,4.59,8.29,4.44,9.47,3.84,11.09,4.74,8.73,3.11,11.39a65.62,65.62,0,0,0-3.55,7.4s-6.95,13.32-10.5,15.83-19.83,23.67-19.83,23.67-17.45,20.12-17.45,26.33c0,0-17-28.4-27.08-27.66l19.68-22.64s3.4-3.69,3.55-5.91,9.47-12.43,13.91-12.87c0,0,.73-6.07-1.19-6.22s-3.55-4.88-3.55-4.88-13-15.38-13.17-25.15S1032.93,363.51,1032.93,363.51Z" transform="translate(-82.53 -34.2)" fill="#39447a"/>
      <path id="Path_6061" data-name="Path 6061" d="M1040.77,377.56s-12.42,9.18-9.76,12.13S1040.77,377.56,1040.77,377.56Z" transform="translate(-82.53 -34.2)" opacity="0.1"/>
      <path id="Path_6062" data-name="Path 6062" d="M1041.36,415.44s23.08-7.4,25.45,0Z" transform="translate(-82.53 -34.2)" opacity="0.1"/>
      <path id="Path_6063" data-name="Path 6063" d="M898.46,808.51s-12.43,8.14-18.64,7-12.58,2.08-12.58,2.08a37.48,37.48,0,0,1-15.69,10.21c-10,3.4-24.1,2.06-32.09-.6-3.78-1.26-4.09-2.88-2.27-4.89,8.69,1.73,28.1,5.18,33.33,2.67,6.8-3.26,16.57-10.36,16.57-10.36s12.73-1.77,14.5-1.77c1.26,0,11.09-4.06,16.64-6.38Z" transform="translate(-82.53 -34.2)" opacity="0.1"/>
      <path id="Path_6064" data-name="Path 6064" d="M973.73,825.15l-.13.82s-3,6.51-19.37,8.88-16.42-5.48-16.42-5.48.06-.84.16-2.11C943.17,829.23,954.51,831.43,973.73,825.15Z" transform="translate(-82.53 -34.2)" opacity="0.1"/>
      <path id="Path_6065" data-name="Path 6065" d="M878.56,375.79s0,33.73-2.89,37.06S878.56,375.79,878.56,375.79Z" transform="translate(-82.53 -34.2)" opacity="0.1"/>
      <path id="Path_6066" data-name="Path 6066" d="M1011.92,386.66l4.29,12.06S1017.92,386.88,1011.92,386.66Z" transform="translate(-82.53 -34.2)" opacity="0.1"/>
      <circle id="Ellipse_109" data-name="Ellipse 109" cx="0.36" cy="0.36" r="0.36" transform="translate(688.94 335.71)" fill="#e6e8ec"/>
      <ellipse id="Ellipse_110" data-name="Ellipse 110" cx="86.34" cy="8.81" rx="86.34" ry="8.81" transform="translate(730.7 783.47)" fill="#738ed3" opacity="0.1"/>
      <path id="Path_6071" data-name="Path 6071" d="M582.08,248.59,320.57,418.25l170.66,307.8a11.91,11.91,0,0,0,7.6,5.8l154.63,37.72A11.92,11.92,0,0,0,667,763.16l76.7-159.35,84.06-112.37-199.48-236a35.35,35.35,0,0,0-46.2-6.85Z" transform="translate(-82.53 -34.2)" fill="#dcdfed"/>
      <path id="Path_6072" data-name="Path 6072" d="M830.42,492.77l-.74,1L780.44,559.6l-.89,1.19-33.19,44.37-65.6,136.31-1.84,3.81-9.26,19.23a11.92,11.92,0,0,1-13.56,6.41L501.47,733.18a11.89,11.89,0,0,1-7.6-5.8L479,700.61l-2.67-4.82L369,502.13l-.92-1.65-44.86-80.9,5.42-3.52,41.09-26.65.95-.62,86.53-56.14,5.46-3.54,122.05-79.19a35.34,35.34,0,0,1,46.22,6.84l91,107.7,4,4.8,66.05,78.14.36.43,33.21,39.28,4.18,4.95Z" transform="translate(-82.53 -34.2)" opacity="0.1"/>
      <path id="Path_6073" data-name="Path 6073" d="M789.79,446.5l-8.06,56-2.43,16.9-1.39,36-.11,2.81-7.23,188.1a11.93,11.93,0,0,1-14.51,11.17l-77.94-17.4-.84-.19L477.39,695.28l-3.67-.82L363.83,669.92l2.52-169.12.08-5.65.76-51.19.84-56.5,86.53-56.14,5.46-3.54c80.26,8.23,187,24.06,259.31,35.35l4,4.8,66,78.14Z" transform="translate(-82.53 -34.2)" opacity="0.1"/>
      <path id="Path_6074" data-name="Path 6074" d="M798.92,380.1l-9.49,66-8.7,60.44L778.3,523.4l-1.39,36-7.34,190.91a11.93,11.93,0,0,1-14.51,11.17l-78.78-17.59L476.39,699.28,362.83,673.92l2.6-174.77.76-51.19.89-59.88.91-61.59c18.78-.89,49.68,1.12,86.57,4.83,82.6,8.29,195.2,25.06,268.82,36.61C768.46,375,798.92,380.1,798.92,380.1Z" transform="translate(-82.53 -34.2)" fill="#738ed3"/>
      <path id="Path_6075" data-name="Path 6075" d="M823,485.78l-42.27,20.73L565,612.31,366.19,448,326,414.73l-5.42,3.52,44.86,80.9-2.6,174.77L476.4,699.28l14.84,26.77a11.89,11.89,0,0,0,7.6,5.8l154.63,37.72A11.92,11.92,0,0,0,667,763.16l9.26-19.23,78.78,17.59a11.93,11.93,0,0,0,14.51-11.17l7.34-190.91,50.13-67,.14-1.69Z" transform="translate(-82.53 -34.2)" opacity="0.1"/>
      <path id="Path_6076" data-name="Path 6076" d="M320.57,418.25,302.74,723.58a11.92,11.92,0,0,0,9.31,12.33L785.57,841.06A11.92,11.92,0,0,0,800,830.39l27.75-338.95L565,620.31Z" transform="translate(-82.53 -34.2)" fill="#dcdfed"/>
      <path id="Path_6077" data-name="Path 6077" d="M306,730.57,552,578.8a18.06,18.06,0,0,1,23,3.6L795.18,839.19c.8.92,1.19.26,0,0L306,730.57C304.6,730.26,304.78,731.3,306,730.57Z" transform="translate(-82.53 -34.2)" opacity="0.1"/>
      <path id="Path_6078" data-name="Path 6078" d="M307.76,730.32,551.22,583.25a19.09,19.09,0,0,1,24.28,3.82L793.69,838a2.63,2.63,0,0,1-2.55,4.29L308.55,735.13a2.62,2.62,0,0,1-.79-4.81Z" transform="translate(-82.53 -34.2)" fill="#e3e5f1"/>
    </g>
    <path id="Path_6079" data-name="Path 6079" d="M448.72,159.787s-9.359,2.719-14.623-9.272-9.359-18.531-31-11.446-26,7.95-27.037,1.25c-.711-4.578,6.985-15.7,11.93-22.283a13.186,13.186,0,0,1,10.557-5.128h24.438l14.623,7.63,11.114,10.9,2.34,14.716Z" transform="translate(-2212.808 -578.43)"/>
    <path id="Path_6080" data-name="Path 6080" d="M449.409,127.885c.878-5.52,1.74-11.316.142-16.632a16.311,16.311,0,0,0-9.9-10.763c-2.984-1.022-6.2-1-9.164-2.088-4.173-1.531-7.443-5.085-11.068-7.852a34.951,34.951,0,0,0-10.464-5.5c-3.351-1.079-7.3-1.495-10.026.923-2.3,2.036-3.1,5.525-5,8.019-2.21,2.9-5.644,4.162-8.641,5.989-7.584,4.729-12.588,13.32-13.377,22.965-.1,1.415,0,3.1,1.074,3.866a3.5,3.5,0,0,0,2.158.439c15.134-.241,30.286-.483,45.357-2.031a97.781,97.781,0,0,1,14.081-.891,42.558,42.558,0,0,1,20.734,6.52" transform="translate(-2214.341 -568.648)"/>
  </g>
</svg>
