<svg height="512pt" viewBox="0 0 512 512" width="512pt" xmlns="http://www.w3.org/2000/svg"><path d="m448.246094 512h-18.246094c-11.71875-11.714844-18.285156-18.285156-30-30v-360h-331.4375l15.1875-122h428.230469zm0 0" fill="#00245e"/><path d="m448.246094 512h-18.246094c-11.71875-11.714844-18.285156-18.285156-30-30v-360h-122.4375l15.1875-122h219.230469zm0 0" fill="#00245e"/><path d="m430 512h-430v-420h430zm0 0" fill="#fff3f3"/><path d="m218 92h212v420h-212zm0 0" fill="#d9effe"/><path d="m286 182h84v30h-84zm0 0" fill="#2fbdf3"/><path d="m286 242h54v30h-54zm0 0" fill="#2fbdf3"/><path d="m60 302h310v30h-310zm0 0" fill="#0cf"/><path d="m60 362h196v30h-196zm0 0" fill="#0cf"/><path d="m60 422h126v30h-126zm0 0" fill="#0cf"/><path d="m143 152h30v105h-30zm0 0" fill="#fda500"/><path d="m83 172h30v85h-30zm0 0" fill="#ffc600"/><path d="m203 192h30v65h-30zm0 0" fill="#ff4359"/><g fill="#2fbdf3"><path d="m325 452c-24.8125 0-45-20.1875-45-45s20.1875-45 45-45 45 20.1875 45 45-20.1875 45-45 45zm0 0"/><path d="m218 302h155v30h-155zm0 0"/><path d="m218 362h38v30h-38zm0 0"/></g><path d="m218 192h15v65h-15zm0 0" fill="#e2095a"/><path d="m60 242h196v30h-196zm0 0" fill="#ffef00"/><path d="m218 242h38v30h-38zm0 0" fill="#ffc600"/></svg>