<?xml version="1.0" encoding="UTF-8"?>
<svg xmlns="http://www.w3.org/2000/svg" xmlns:xlink="http://www.w3.org/1999/xlink" width="500px" height="500px" viewBox="0 0 500 500" version="1.1">
<defs>
<linearGradient id="linear0" gradientUnits="userSpaceOnUse" x1="32" y1="5.167" x2="32" y2="59" spreadMethod="reflect" gradientTransform="matrix(7.8125,0,0,7.8125,0,0)">
<stop offset="0" style="stop-color:rgb(10.196078%,42.745098%,100%);stop-opacity:1;"/>
<stop offset="1" style="stop-color:rgb(78.431373%,13.333333%,100%);stop-opacity:1;"/>
</linearGradient>
<linearGradient id="linear1" gradientUnits="userSpaceOnUse" x1="28.349" y1="5.167" x2="28.349" y2="59" spreadMethod="reflect" gradientTransform="matrix(7.8125,0,0,7.8125,0,0)">
<stop offset="0" style="stop-color:rgb(10.196078%,42.745098%,100%);stop-opacity:1;"/>
<stop offset="1" style="stop-color:rgb(78.431373%,13.333333%,100%);stop-opacity:1;"/>
</linearGradient>
<linearGradient id="linear2" gradientUnits="userSpaceOnUse" x1="23.25" y1="5.167" x2="23.25" y2="59" spreadMethod="reflect" gradientTransform="matrix(7.8125,0,0,7.8125,0,0)">
<stop offset="0" style="stop-color:rgb(10.196078%,42.745098%,100%);stop-opacity:1;"/>
<stop offset="1" style="stop-color:rgb(78.431373%,13.333333%,100%);stop-opacity:1;"/>
</linearGradient>
<linearGradient id="linear3" gradientUnits="userSpaceOnUse" x1="37.45" y1="4.436" x2="37.45" y2="59.469" spreadMethod="reflect" gradientTransform="matrix(7.8125,0,0,7.8125,0,0)">
<stop offset="0" style="stop-color:rgb(42.745098%,78.039216%,100%);stop-opacity:1;"/>
<stop offset="1" style="stop-color:rgb(90.196078%,67.058824%,100%);stop-opacity:1;"/>
</linearGradient>
</defs>
<g id="surface920418">
<path style=" stroke:none;fill-rule:nonzero;fill:url(#linear0);" d="M 218.75 460.9375 C 215.59375 460.9375 212.6875 459.015625 211.492188 456 C 195.945312 416.773438 167.007812 343.75 145.507812 343.75 C 135.460938 343.75 125.523438 350.1875 125.429688 350.25 C 122.726562 352.0625 119.171875 352 116.53125 350.085938 L 18.875 279.773438 C 16.578125 278.117188 15.351562 275.335938 15.679688 272.515625 C 16.007812 269.695312 17.84375 267.28125 20.46875 266.203125 L 149.109375 213.40625 C 154.851562 204.929688 177.140625 173.867188 201.296875 164.578125 C 204.945312 163.171875 207.992188 162.03125 210.585938 161.0625 C 223.65625 156.164062 223.65625 156.164062 233.65625 146.765625 L 235.867188 144.6875 C 249.453125 131.953125 275.375 91.929688 283.390625 78.914062 C 284.3125 77.40625 285.296875 75.75 286.335938 74 C 295.0625 59.25 307.007812 39.0625 325.195312 39.0625 C 346.054688 39.0625 357.132812 60.554688 369.460938 88.664062 C 380.789062 114.5 411.046875 200.054688 423.421875 236.765625 C 453.1875 325.101562 483.273438 386.570312 483.578125 387.179688 C 485.101562 390.28125 484.40625 394.023438 481.859375 396.375 C 479.320312 398.726562 475.539062 399.125 472.554688 397.335938 C 471.921875 396.960938 456.789062 387.789062 431.976562 362.945312 C 413.570312 344.523438 398.570312 335.9375 384.765625 335.9375 C 360.476562 335.9375 343.320312 355.25 321.59375 379.710938 L 320.296875 381.171875 C 317.71875 384.070312 314.882812 387.398438 311.789062 391.015625 C 290.226562 416.257812 257.648438 454.414062 220.070312 460.835938 C 219.625 460.90625 219.179688 460.9375 218.75 460.9375 Z M 145.507812 328.125 C 174.359375 328.125 197.179688 377.90625 223.539062 444.023438 C 253.273438 435.46875 281.09375 402.890625 299.90625 380.867188 C 303.070312 377.164062 305.984375 373.75 308.617188 370.789062 L 309.914062 369.328125 C 333.28125 343.023438 353.460938 320.3125 384.765625 320.3125 C 408.4375 320.3125 428.335938 337.195312 443.03125 351.898438 C 447.695312 356.570312 451.992188 360.648438 455.890625 364.1875 C 444.125 337.359375 426.289062 294.195312 408.617188 241.75 C 395.84375 203.84375 365.84375 119.3125 355.15625 94.929688 C 343.703125 68.835938 335.539062 54.6875 325.195312 54.6875 C 315.914062 54.6875 305.8125 71.757812 299.773438 81.960938 C 298.6875 83.796875 297.65625 85.53125 296.6875 87.101562 C 296.367188 87.625 264.507812 139.257812 246.554688 156.09375 L 244.359375 158.15625 C 232.429688 169.375 231.640625 169.867188 216.078125 175.695312 C 213.523438 176.65625 210.515625 177.78125 206.90625 179.171875 C 188.039062 186.429688 167.28125 213.953125 160.875 223.945312 C 160.007812 225.296875 158.75 226.351562 157.265625 226.960938 L 39.421875 275.320312 L 121.601562 334.484375 C 126.882812 331.796875 135.859375 328.125 145.507812 328.125 Z M 145.507812 328.125 "/>
<path style=" stroke:none;fill-rule:nonzero;fill:url(#linear1);" d="M 124.421875 350.820312 L 117.757812 336.6875 C 118.242188 336.460938 166.132812 313.289062 203.398438 255.53125 C 238.796875 200.664062 256.28125 157.820312 265.671875 134.804688 C 268.0625 128.945312 269.890625 124.492188 271.289062 121.601562 C 274.726562 114.484375 278.046875 105.921875 281.5625 96.851562 C 292.578125 68.4375 303.976562 39.0625 325.195312 39.0625 L 325.195312 54.6875 C 314.671875 54.6875 303.953125 82.320312 296.132812 102.5 C 292.5 111.867188 289.0625 120.71875 285.359375 128.398438 C 284.054688 131.09375 282.375 135.25 280.140625 140.71875 C 270.554688 164.203125 252.71875 207.914062 216.53125 264.007812 C 176.710938 325.71875 126.539062 349.820312 124.421875 350.820312 Z M 124.421875 350.820312 "/>
<path style=" stroke:none;fill-rule:nonzero;fill:url(#linear2);" d="M 204.296875 266.992188 L 149.609375 225.976562 L 158.984375 213.476562 L 213.671875 254.492188 Z M 204.296875 266.992188 "/>
<path style=" stroke:none;fill-rule:nonzero;fill:url(#linear3);" d="M 298.226562 358.953125 C 322.59375 331.523438 345.632812 305.59375 382.8125 304.710938 C 382.8125 304.710938 356.445312 188.476562 333.984375 92.773438 C 329.421875 73.328125 327.601562 70.3125 325.703125 70.3125 C 324.414062 70.3125 322.882812 73.164062 321.671875 79.734375 C 315.179688 114.820312 284.492188 245.484375 259.765625 308.59375 C 250.320312 332.703125 233.429688 346.882812 218.75 353.515625 C 212.03125 356.554688 202.34375 359.375 202.34375 359.375 C 212.507812 377.179688 222.164062 399.0625 232.101562 423.453125 C 253.085938 411.632812 273.609375 387.59375 288.023438 370.71875 C 291.257812 366.929688 294.242188 363.445312 296.945312 360.398438 Z M 298.226562 358.953125 "/>
</g>
</svg>
