<svg xmlns="http://www.w3.org/2000/svg" width="1079.389" height="886.116" viewBox="0 0 1079.389 886.116">
  <g id="Layer_2" data-name="Layer 2" transform="translate(0 -0.023)">
    <g id="vector" transform="translate(0 0.023)">
      <path id="Path_1" data-name="Path 1" d="M282.59,823.1c98.5-68.188,286.32-168.231,466.026-237.345q4.777-4.275,9.715-8.618c73.629-65.091,171.934-146.3,183.775-235.082,11.658-88.979-63.136-185.729-154.641-237.985C695.96,52,587.757,44.218,479.348,44S262.337,51.007,208.3,109.88c-53.787,58.7-53.01,169.214-61.171,270.044s-25.442,192.141.777,277.622C169.335,727.9,220.368,794.552,282.59,823.1Z" transform="translate(19.148 6.263)" fill="#f0f1f2"/>
      <path id="Path_2" data-name="Path 2" d="M736.019,563.5c-9.544-3.269-40.769-44.575-40.769-93.6,0-56.953,60.245-164.756,65.971-203.159C764.867,242.323,781.314,27.14,906.215,27.14,974.324,27.14,980,160.3,980,219.864,980,359,777.7,477.507,777.7,549.776A309.162,309.162,0,0,1,736.019,563.5Z" transform="translate(99.385 3.853)" fill="#3f3d56"/>
      <path id="Path_3" data-name="Path 3" d="M744.36,540.227c0-111.575,83.264-314.859,156.5-386.4" transform="translate(106.405 21.963)" fill="none" stroke="#fff" stroke-linecap="round" stroke-miterlimit="10" stroke-width="4"/>
      <path id="Path_4" data-name="Path 4" d="M326.646,720.005c-6.378-1.9-23.716-24-23.716-52.484,0-27.431,7.7-67.434,7.7-104.545,0-20.642-7.7-27.957-7.7-52.518,0-39.146,37.1-51.067,50.107-51.067,19.144,0,29.385,16.378,29.385,25.053,0,12.1-3.429,21.293-3.429,34.688,0,26.185,9.144,29.465,8.184,52.027-2.857,65.96-30.242,130.445-54.313,145.074Z" transform="translate(43.303 65.643)" fill="#3f3d56"/>
      <path id="Path_5" data-name="Path 5" d="M369.95,743.426c7.818-6.743-35.957-220.018-73.926-257.758-41.306-41.02-75.263-62.736-86.475-76.2C189.661,385.591,177,295.55,89.459,295.55c-23.156,0-77.72,19.144-87.538,100.168-3.212,26.6-9.052,67.285,46.3,126.25,37.283,39.729,83.915,26.048,129.5,69.091,32.814,30.985,28.219,77.72,58.862,117.209C261.1,739.814,324.746,782.366,369.95,743.426Z" transform="translate(0 42.222)" fill="#3f3d56"/>
      <path id="Path_6" data-name="Path 6" d="M343.847,733.089c0-53.524-168.848-295.1-236.407-329.649" transform="translate(15.358 57.645)" fill="none" stroke="#fff" stroke-linecap="round" stroke-miterlimit="10" stroke-width="4"/>
      <path id="Path_7" data-name="Path 7" d="M324,707.388c-1.68-12.687-8.766-120.467,11.315-159.738" transform="translate(45.946 78.259)" fill="none" stroke="#fff" stroke-linecap="round" stroke-linejoin="round" stroke-width="4"/>
      <path id="Path_8" data-name="Path 8" d="M207,819.5c50.53-72.154,501.914-318.323,773.079-363.8" transform="translate(29.59 65.115)" fill="none" stroke="#6d6d6d" stroke-linecap="round" stroke-miterlimit="10" stroke-width="3"/>
      <rect id="Rectangle_1" data-name="Rectangle 1" width="137.074" height="254.855" rx="12" transform="translate(503.686 129.047)" fill="#f55f44"/>
      <path id="Path_9" data-name="Path 9" d="M461.092,701.218v29.717H380.4V718.362L430.393,695.4Z" transform="translate(54.378 99.38)" fill="#333"/>
      <path id="Path_10" data-name="Path 10" d="M612.568,675.56c4.08,9.144,13.715,32.837,13.715,32.837l-40.266,25.316H549.535l-4.275-13.99,45.832-35.077Z" transform="translate(77.944 96.544)" fill="#333"/>
      <ellipse id="Ellipse_1" data-name="Ellipse 1" cx="34.026" cy="42.906" rx="34.026" ry="42.906" transform="translate(517.013 37.542)" fill="#de8e68"/>
      <path id="Path_11" data-name="Path 11" d="M477.143,3.837C472.685-2.289,460.1-.906,449.038,7.06a38.678,38.678,0,0,0-10.469,11.052,3.063,3.063,0,0,0-1.143-.263c-5.372,0-94.67,47.764-93.825,69.8s30.8,57.376,41.26,64.154c0,0,47.192-22.036,44.655-29.111S399.8,92.976,395.033,88.5c5.6-2.926,50.427-47.341,55.49-52.37a37.969,37.969,0,0,0,14.687-6.641C476.251,21.507,481.612,10.032,477.143,3.837Z" transform="translate(49.116 -0.023)" fill="#de8e68"/>
      <path id="Path_12" data-name="Path 12" d="M447.235,176.584c10.287-8.275-6.743-77.663-25-79.366s-50.084,32.688-48.8,42.449S421.244,197.386,447.235,176.584Z" transform="translate(53.377 13.862)" fill="#7385d3"/>
      <path id="Path_13" data-name="Path 13" d="M402.27,314.358c0,11.43,5.715,406.89,16,441.178,9.144,4.572,33.146,5.715,41.146,2.286s59.056-437.2,59.056-456.242S402.27,314.358,402.27,314.358Z" transform="translate(57.504 42.216)" fill="#39447a"/>
      <path id="Path_14" data-name="Path 14" d="M602.145,743.055C591.229,725.911,449.1,392.992,437.96,310.906c11.669-9.041,98.511-23.453,105.54-7.041s91.436,422.194,88.544,427.463S610.351,744.815,602.145,743.055Z" transform="translate(62.606 42.341)" fill="#3c4a79"/>
      <path id="Path_15" data-name="Path 15" d="M495.3,119c73.72,0,69.148,204.016,53.147,216.589s-141.154,13.144-149.155,4S372.39,119,495.3,119Z" transform="translate(56.216 16.984)" fill="#738ed3"/>
      <path id="Path_16" data-name="Path 16" d="M542.977,64.649c0-8.7-8.309-14.973-8.309-19.8s2.846-13.464-3.52-19.647c-7.738-7.509-20.07-4.377-31.111-4.377-10.378,0-16.1-12.058-30.265-12.058-9.441,0-8.241,12.252-11.772,15.293-2.617,2.286-23.019,6.675-23.019,16,0,10.424.274,24.413,21.922,24.413,1.44-5.006,6.858-16,13.03-20.893,3.177,1.372,20.573,8.549,24.882,9.818s10.607,19.716,17.281,21.945,7.1,14.515,11.978,13.99S542.977,86.753,542.977,64.649Z" transform="translate(62.18 1.227)" fill="#333"/>
      <circle id="Ellipse_2" data-name="Ellipse 2" cx="8.995" cy="8.995" r="8.995" transform="translate(571.337 74.837)" fill="#de8e68"/>
      <path id="Path_17" data-name="Path 17" d="M500.889,140.083c-1.44,4.972-31.671-1.063-31.088-6.686l5.166-49.947,36.426,7.841S502.352,135.134,500.889,140.083Z" transform="translate(67.156 11.903)" fill="#de8e68"/>
      <line id="Line_1" data-name="Line 1" x1="127.839" y2="633.731" transform="translate(646.12 178.776)" fill="none" stroke="#333" stroke-linecap="round" stroke-miterlimit="10" stroke-width="7"/>
      <path id="Path_18" data-name="Path 18" d="M676.611,326.272a23.3,23.3,0,0,0-12.572-6.572c-15.247-24.608-67.057-100.454-89.9-128.01-16.47,11.83-36.574,32.517-36.574,32.517,8.4,9.418,71.32,83.858,104.8,113.049a22.757,22.757,0,0,0,6.858,16.424c8.469,8.481,21.476,9.212,29.042,1.657S685.08,334.753,676.611,326.272Z" transform="translate(76.843 27.375)" fill="#de8e68"/>
      <path id="Path_19" data-name="Path 19" d="M508.957,148.908c29.568-21.979,78.315,31.168,77.515,45.146s-38.266,44.975-51.078,45.009C519.746,239.086,483.789,167.618,508.957,148.908Z" transform="translate(71.513 20.508)" fill="#7993d6"/>
    </g>
  </g>
</svg>
