<?xml version="1.0" encoding="UTF-8"?>
<svg xmlns="http://www.w3.org/2000/svg" xmlns:xlink="http://www.w3.org/1999/xlink" width="480pt" height="480pt" viewBox="0 0 480 480" version="1.1">
<g id="surface80723">
<path style=" stroke:none;fill-rule:nonzero;fill:rgb(90.196078%,49.411765%,13.333333%);fill-opacity:1;" d="M 340 80 L 340 90 L 330 110 L 300 110 C 288.949219 110 280 118.949219 280 130 L 280 317.5 C 280 365 294.488281 370 305 370 L 340 370 L 330 440 L 140 440 C 140 440 198.75 410 218.75 357.5 C 238.75 305 239.199219 268.398438 247.5 168.75 C 253.75 93.75 291.71875 80 291.71875 80 Z M 340 80 "/>
<path style=" stroke:none;fill-rule:nonzero;fill:rgb(94.509804%,76.862745%,5.882353%);fill-opacity:1;" d="M 190 130 L 190 300 C 190 301.101562 190 302.300781 189.898438 303.601562 C 189.800781 319.699219 188.601562 331.398438 187 339.800781 L 186.898438 339.898438 L 186.898438 340 C 184.5 352.398438 181.199219 357.699219 179.199219 359.898438 C 178.199219 360.800781 177.601562 361.101562 177.5 361.199219 L 217.5 361.25 L 218.75 357.5 C 238.75 305 239.199219 268.398438 247.5 168.75 C 253.75 93.75 291.71875 80 291.71875 80 L 340 80 L 340 40 L 145 40 C 142.238281 40 140 42.238281 140 45 L 140 100 L 170 100 C 181.050781 100 190 108.949219 190 120 Z M 190 130 "/>
<path style=" stroke:none;fill-rule:nonzero;fill:rgb(100%,63.137255%,27.058824%);fill-opacity:1;" d="M 214.46875 303.859375 C 232.5 247.089844 238.070312 190.230469 242.5 151.878906 C 253.140625 59.859375 340 40 340 40 L 340 90 C 315 90 291.25 87.191406 275.621094 105.421875 C 253.121094 131.671875 256.390625 193.058594 252.179688 244.378906 C 247.5 301.539062 255 400 140 440 L 140 370 C 140 370 161.621094 371.828125 177.5 361.25 C 196.25 348.75 209.101562 320.738281 214.46875 303.859375 Z M 214.46875 303.859375 "/>
<path style=" stroke:none;fill-rule:nonzero;fill:rgb(94.509804%,76.862745%,5.882353%);fill-opacity:1;" d="M 320 440 C 320 440 320 370 340 370 L 340 440 Z M 320 440 "/>
<path style=" stroke:none;fill-rule:nonzero;fill:rgb(90.196078%,49.411765%,13.333333%);fill-opacity:1;" d="M 210 130 C 210 339.171875 185.898438 353.898438 179.199219 359.898438 C 181.199219 357.699219 184.5 352.398438 186.898438 340 L 186.898438 339.898438 L 187 339.800781 C 188.601562 331.398438 189.800781 319.699219 189.898438 303.601562 C 190 302.300781 190 301.101562 190 300 L 190 130 C 190 119 181 110 170 110 L 150 110 C 144.5 110 140 105.5 140 100 C 140 94.5 144.5 90 150 90 L 170 90 C 192.101562 90 210 107.898438 210 130 Z M 210 130 "/>
</g>
</svg>
