<?xml version="1.0" encoding="iso-8859-1"?>
<!-- Generator: Adobe Illustrator 19.0.0, SVG Export Plug-In . SVG Version: 6.00 Build 0)  -->
<svg version="1.1" id="Layer_1" xmlns="http://www.w3.org/2000/svg" xmlns:xlink="http://www.w3.org/1999/xlink" x="0px" y="0px"
	 viewBox="0 0 460 460" style="enable-background:new 0 0 460 460;" xml:space="preserve">
<g id="XMLID_478_">
	<polygon id="XMLID_479_" style="fill:#FB992D;" points="50,145 50,175 230,175 240,160 230,145 	"/>
	<rect id="XMLID_481_" x="50" y="275" style="fill:#FB992D;" width="180" height="30"/>
	<polygon id="XMLID_482_" style="fill:#FFB739;" points="230,60 240,45 230,30 60,30 60,0 30,0 30,390 0,390 0,430 240,440 230,390 
		60,390 60,60 	"/>
	<g id="XMLID_486_">
		<polygon id="XMLID_484_" style="fill:#FB992D;" points="0,430 0,460 230,460 240,430 		"/>
	</g>
	<rect id="XMLID_487_" x="230" y="145" style="fill:#F67A21;" width="180" height="30"/>
	<path id="XMLID_488_" style="fill:#8BC0FF;" d="M90,145v30c0,16.5,13.5,30,30,30l10-45l-10-45C103.5,115,90,128.5,90,145z"/>
	<path id="XMLID_489_" style="fill:#466289;" d="M150,145v30c0,16.5,13.5,30,30,30l10-45l-10-45C163.5,115,150,128.5,150,145z"/>
	<path id="XMLID_490_" style="fill:#3897FF;" d="M250,145v30c0,16.5,13.5,30,30,30l10-45l-10-45C263.5,115,250,128.5,250,145z"/>
	<path id="XMLID_491_" style="fill:#354A67;" d="M310,145v30c0,16.5,13.5,30,30,30l10-45l-10-45C323.5,115,310,128.5,310,145z"/>
	<rect id="XMLID_493_" x="230" y="275" style="fill:#F67A21;" width="180" height="30"/>
	<path id="XMLID_494_" style="fill:#8BC0FF;" d="M90,275v30c0,16.5,13.5,30,30,30l10-45l-10-45C103.5,245,90,258.5,90,275z"/>
	<path id="XMLID_495_" style="fill:#354A67;" d="M190,275v30c0,16.5,13.5,30,30,30l10-45l-10-45C203.5,245,190,258.5,190,275z"/>
	<path id="XMLID_496_" style="fill:#354A67;" d="M250,275v30c0,16.5,13.5,30,30,30l10-45l-10-45C263.5,245,250,258.5,250,275z"/>
	<path id="XMLID_497_" style="fill:#3897FF;" d="M310,275v30c0,16.5,13.5,30,30,30l10-45l-10-45C323.5,245,310,258.5,310,275z"/>
	<path id="XMLID_498_" style="fill:#3897FF;" d="M120,245v90c16.5,0,30-13.5,30-30v-30C150,258.5,136.5,245,120,245z"/>
	<path id="XMLID_500_" style="fill:#3897FF;" d="M120,115v90c16.5,0,30-13.5,30-30v-30C150,128.5,136.5,115,120,115z"/>
	<path id="XMLID_501_" style="fill:#354A67;" d="M180,115v90c16.5,0,30-13.5,30-30v-30C210,128.5,196.5,115,180,115z"/>
	<path id="XMLID_502_" style="fill:#2D79CC;" d="M280,115v90c16.5,0,30-13.5,30-30v-30C310,128.5,296.5,115,280,115z"/>
	<path id="XMLID_503_" style="fill:#121923;" d="M340,115v90c16.5,0,30-13.5,30-30v-30C370,128.5,356.5,115,340,115z"/>
	<path id="XMLID_504_" style="fill:#233145;" d="M220,245v90c16.5,0,30-13.5,30-30v-30C250,258.5,236.5,245,220,245z"/>
	<path id="XMLID_505_" style="fill:#121923;" d="M280,245v90c16.5,0,30-13.5,30-30v-30C310,258.5,296.5,245,280,245z"/>
	<path id="XMLID_506_" style="fill:#2D79CC;" d="M340,245v90c16.5,0,30-13.5,30-30v-30C370,258.5,356.5,245,340,245z"/>
	<g id="XMLID_509_">
		<rect id="XMLID_508_" x="230" y="430" style="fill:#FA6121;" width="230" height="30"/>
	</g>
	<polygon id="XMLID_510_" style="fill:#FB992D;" points="430,390 430,0 400,0 400,30 230,30 230,60 400,60 400,390 230,390 230,430 
		460,430 460,390 	"/>
</g>
<g>
</g>
<g>
</g>
<g>
</g>
<g>
</g>
<g>
</g>
<g>
</g>
<g>
</g>
<g>
</g>
<g>
</g>
<g>
</g>
<g>
</g>
<g>
</g>
<g>
</g>
<g>
</g>
<g>
</g>
</svg>
