<svg xmlns="http://www.w3.org/2000/svg" width="892.349" height="625.404" viewBox="0 0 892.349 625.404">
  <g id="proj-website" transform="translate(1824.823 1451)">
    <g id="Group_22" data-name="Group 22" transform="translate(-11 55)">
      <g id="Group_21" data-name="Group 21" transform="translate(-1793 -1506)">
        <g id="Group_20" data-name="Group 20" transform="translate(0 0)">
          <g id="Group_10" data-name="Group 10">
            <rect id="Rectangle_56" data-name="Rectangle 56" width="871.208" height="619.969" fill="#e4e4e4"/>
            <g id="Group_9" data-name="Group 9">
              <g id="undraw_personal_website_weap">
                <circle id="Ellipse_17" data-name="Ellipse 17" cx="83.979" cy="83.979" r="83.979" transform="translate(633.05 251.515)" fill="#f55f44"/>
                <rect id="Rectangle_45" data-name="Rectangle 45" width="871.526" height="26.257" transform="translate(0)" fill="#f2f2f2"/>
                <circle id="Ellipse_18" data-name="Ellipse 18" cx="6.795" cy="6.795" r="6.795" transform="translate(15.29 5.946)" fill="red"/>
                <circle id="Ellipse_19" data-name="Ellipse 19" cx="6.795" cy="6.795" r="6.795" transform="translate(37.375 5.946)" fill="#ffc400"/>
                <circle id="Ellipse_20" data-name="Ellipse 20" cx="6.795" cy="6.795" r="6.795" transform="translate(59.46 5.946)" fill="#00ff14"/>
                <path id="Path_5726" data-name="Path 5726" d="M.617,502.277l-.617.5V679.9H871.526V368.779l-10.387.746Z" transform="translate(0 -60.031)" fill="#f2f2f2"/>
                <rect id="Rectangle_46" data-name="Rectangle 46" width="230.47" height="9.293" transform="translate(59.561 239.13)" fill="#3f3d56"/>
                <rect id="Rectangle_47" data-name="Rectangle 47" width="230.47" height="9.293" transform="translate(59.561 257.745)" fill="#3f3d56"/>
                <rect id="Rectangle_48" data-name="Rectangle 48" width="78.063" height="9.293" transform="translate(59.561 276.359)" fill="#3f3d56"/>
                <circle id="Ellipse_21" data-name="Ellipse 21" cx="9.066" cy="9.066" r="9.066" transform="translate(398.901 593.172)" fill="#fff"/>
                <circle id="Ellipse_22" data-name="Ellipse 22" cx="9.066" cy="9.066" r="9.066" transform="translate(426.697 594.079)" fill="#f2f2f2"/>
                <circle id="Ellipse_23" data-name="Ellipse 23" cx="9.066" cy="9.066" r="9.066" transform="translate(454.493 594.986)" fill="#fff"/>
                <circle id="Ellipse_24" data-name="Ellipse 24" cx="7.253" cy="7.253" r="7.253" transform="translate(428.598 595.892)" fill="#3f3d56"/>
                <path id="Path_5727" data-name="Path 5727" d="M859.143,567.145c0,59.168-64.753,37.5-144.631,37.5s-144.63,21.672-144.63-37.5,64.753-176.771,144.63-176.771S859.143,507.976,859.143,567.145Z" transform="translate(-154.366 -146.492)" fill="#738ed3"/>
                <path id="Path_5728" data-name="Path 5728" d="M1003.374,616.762q-25.128-4.257-48.332-7.312l6.115-11.857c-2.062-.716-11.122,6.074-11.122,6.074l8.025-34.417c-10.371,1.251-15.644,36.393-15.644,36.393L930.83,593.761l5.61,13.358A1069.859,1069.859,0,0,0,813.815,599.4l5.234-10.148c-2.062-.716-11.122,6.074-11.122,6.074l8.025-34.417c-10.371,1.251-15.644,36.393-15.644,36.393l-11.587-11.881,5.942,14.148c-13.45.269-25.727.843-36.857,1.6l1.847-3.581c-1.308-.454-5.429,2.11-8.27,4.048-.819.064-1.62.13-2.425.2l7.6-32.587c-8.46,1.02-13.527,24.591-15.107,33.243-1.113.1-2.217.209-3.3.316l-8.742-8.964c7.323-11.363,18.043-20.331,18.043-20.331-13.734,4.085-20.939,10.93-24.7,17.311a277.2,277.2,0,0,1,16.022-95.775S710.379,556.826,714,598.292l.388,6.589c-38.722-3.9-72.769-5.416-102.079-5.48l5.234-10.148c-2.062-.716-11.122,6.074-11.122,6.074l8.025-34.417C604.077,562.161,598.8,597.3,598.8,597.3l-11.587-11.881,5.941,14.148a688.859,688.859,0,0,0-70.492,4.788c5.294-15.809,23.278-30.844,23.278-30.844-13.734,4.085-20.939,10.93-24.7,17.311a277.2,277.2,0,0,1,16.022-95.775S508.875,556.826,512.5,598.292l.433,7.363c-24.067,3.446-36.167,7.031-36.167,7.031l325.106,4.075q-8.5-1.441-16.782-2.736Zm-274-22.875,3.955,9.418c-3.187.341-6.251.693-9.162,1.052a47.728,47.728,0,0,1,5.207-10.471Z" transform="translate(-141.133 -151.454)" fill="#3f3d56"/>
                <path id="Path_5729" data-name="Path 5729" d="M905.17,608.1c-.176-.287-4.316-7.2-5.752-21.558-1.317-13.172-.47-35.374,11.044-66.345,21.814-58.672-5.027-106.011-5.3-106.483l1.324-.768c.07.12,7,12.189,11.087,31.409a137.026,137.026,0,0,1-5.675,76.376c-21.776,58.572-5.587,86.3-5.421,86.572Z" transform="translate(-141.133 -147.559)" fill="#3f3d56"/>
                <circle id="Ellipse_25" data-name="Ellipse 25" cx="9.948" cy="9.948" r="9.948" transform="translate(745.559 254.829)" fill="#738ed3"/>
                <circle id="Ellipse_26" data-name="Ellipse 26" cx="9.948" cy="9.948" r="9.948" transform="translate(776.934 288.219)" fill="#3f3d56"/>
                <circle id="Ellipse_27" data-name="Ellipse 27" cx="9.948" cy="9.948" r="9.948" transform="translate(755.507 310.48)" fill="#738ed3"/>
                <circle id="Ellipse_28" data-name="Ellipse 28" cx="9.948" cy="9.948" r="9.948" transform="translate(781.525 329.262)" fill="#738ed3"/>
                <circle id="Ellipse_29" data-name="Ellipse 29" cx="9.948" cy="9.948" r="9.948" transform="translate(747.854 358.479)" fill="#3f3d56"/>
                <path id="Path_5730" data-name="Path 5730" d="M911.18,608.468s-9.948-24.488,19.9-42.854Z" transform="translate(-141.133 -152.978)" fill="#3f3d56"/>
                <path id="Path_5731" data-name="Path 5731" d="M898.945,608.023s-4.527-26.041-39.569-25.817Z" transform="translate(-141.133 -153.382)" fill="#3f3d56"/>
              </g>
              <g id="Group_8" data-name="Group 8" transform="translate(447.795 45.941)">
                <circle id="Ellipse_41" data-name="Ellipse 41" cx="24.683" cy="24.683" r="24.683" transform="translate(81.736 10.197)" fill="#ea9772"/>
                <path id="Path_5775" data-name="Path 5775" d="M832.474,285.74s8.228,18.512-3.085,25.711S847.9,348.476,847.9,348.476l32.911-34.968s-17.484-11.313-14.4-29.825Z" transform="translate(-743.025 -239.033)" fill="#ea9772"/>
                <path id="Path_5776" data-name="Path 5776" d="M756.878,382.121l-7.2,41.138s-12.342,24.683-12.342,46.281-2.057,25.711-2.057,25.711-20.569,41.138-6.171,43.2,20.569-42.167,20.569-42.167,19.541-48.338,19.541-63.764l13.37-33.939Z" transform="translate(-723.994 -261.515)" fill="#ea9772"/>
                <path id="Path_5777" data-name="Path 5777" d="M941.5,384.645l2.057,36s7.2,18.512,2.057,51.423L941.5,503.946s9.256,36,0,37.025-20.569-22.626-14.4-36V493.661s-6.171-48.338-4.114-56.565l-7.2-39.081Z" transform="translate(-759.488 -262.052)" fill="#ea9772"/>
                <path id="Path_5778" data-name="Path 5778" d="M657.776,700.87l10.284,26.74,22.626-4.114-14.4-28.8Z" transform="translate(-609.465 -299.406)" fill="#ea9772"/>
                <path id="Path_5779" data-name="Path 5779" d="M776.966,728.773l-3.085,39.082h25.711l-1.029-33.939Z" transform="translate(-630.952 -307.812)" fill="#ea9772"/>
                <path id="Path_5780" data-name="Path 5780" d="M788.784,472.245,785.7,487.672s-6.171,5.142-6.171,10.285-2.057,7.2-2.057,7.2-1.029,0-2.057,2.057a12.726,12.726,0,0,1-2.057,3.085s-60.679,61.707-47.309,92.561,39.081,93.59,39.081,93.59,29.825-9.256,29.825-16.455l-28.8-81.248,57.594-59.651,46.281,62.736s-9.256,110.045-3.085,111.073,40.11,8.228,41.138,5.142,6.171-139.87,4.114-145.013-31.882-66.85-31.882-66.85,5.142-6.171,2.057-8.228-8.228-21.6-8.228-21.6S793.926,462.989,788.784,472.245Z" transform="translate(-724.018 -285.772)" fill="#2f2e41"/>
                <path id="Path_5781" data-name="Path 5781" d="M844.655,328.438l-20.73-12.785s-12.18.444-15.266,3.529-21.6,11.313-21.6,11.313S791.176,453.91,799.4,449.8s2.057-7.2,8.228-4.114,79.191,4.114,80.22,4.114,2.057-2.057,2.057-2.057L894.021,385l13.37-52.451-39.583-18.213Z" transform="translate(-735.666 -244.706)" fill="#738ed3"/>
                <path id="Path_5782" data-name="Path 5782" d="M790.206,332.9h-8.228s-11.313,3.085-16.455,19.541-7.2,23.655-5.142,25.711,29.825,17.484,29.825,17.484Z" transform="translate(-730.582 -250.445)" fill="#738ed3"/>
                <path id="Path_5783" data-name="Path 5783" d="M788.264,749.929l-8.386-3.085L760.5,772.555s-36,25.711-3.085,24.683c0,0,25.711-4.114,27.768-11.313,0,0,29.825-8.228,29.825-13.37s-6.854-18.851-9.084-19.2S794.435,757.128,788.264,749.929Z" transform="translate(-727.612 -337.196)" fill="#2f2e41"/>
                <path id="Path_5784" data-name="Path 5784" d="M923.9,794.774s-25-.406-24.843.311-7.039,17.173-6.011,23.344,10.285,14.4,8.228,18.512,6.171,16.455,22.626,17.484,14.4-17.484,14.4-17.484L930.073,817.4Z" transform="translate(-755.262 -346.045)" fill="#2f2e41"/>
                <path id="Path_5785" data-name="Path 5785" d="M833.044,235.2a46.721,46.721,0,0,1-3.861,2.954,36.708,36.708,0,0,0-4.654,4.624l-1.592,1.782c-1.354,1.516-2.792,3.247-2.734,5.279.021.754.253,1.486.344,2.235.36,2.971-1.456,6.236.039,8.829.432.75,1.1,1.336,1.577,2.058a4.811,4.811,0,0,1,.76,3.133c1.606.066,2.924-1.374,3.428-2.9a29.226,29.226,0,0,0,.681-4.765c.245-1.589.935-3.271,2.378-3.979,3.08-1.509,6.618,2.415,9.905,1.437,2.3-.683,3.506-3.529,5.853-4.006,1.68-.342,3.3.657,4.859,1.364s3.666,1.035,4.77-.276c.731-.868.809-2.259,1.779-2.849,1.162-.707,2.617.277,3.5,1.315s1.852,2.306,3.211,2.268c1.8-.05,3.185-2.452,4.9-1.882,1.932.643,1.044,3.736,2.216,5.4.991,1.408,3.067,1.325,4.773,1.092a1.71,1.71,0,0,0,1.78-2.283l-.713-9.45a4.563,4.563,0,0,0-.418-1.886c-.5-.9-1.523-1.354-2.222-2.106-1.469-1.582-1.4-4.355-3.225-5.5-.948-.6-2.189-.579-3.131-1.187-1.208-.779-1.6-2.34-2.443-3.5a7.46,7.46,0,0,0-5.368-2.643c-2.044-.211-4.107.044-6.161-.023-4.176-.136-8.352-1.311-12.548-.624C837.06,229.708,835.523,232.814,833.044,235.2Z" transform="translate(-741.759 -228.893)"/>
                <path id="Path_5786" data-name="Path 5786" d="M915.414,335.426l14.4,1.028s18.512,43.2,13.37,45.252-34.968,17.484-34.968,14.4S915.414,335.426,915.414,335.426Z" transform="translate(-757.272 -250.959)" fill="#738ed3"/>
              </g>
              <rect id="Rectangle_49" data-name="Rectangle 49" width="127.359" height="127.359" transform="translate(460.865 227.632)" fill="#f2f2f2"/>
              <path id="Path_5787" data-name="Path 5787" d="M375.781,110.07c-.579-3.269-1.148-6.7-.094-9.851a10.16,10.16,0,0,1,6.536-6.375c1.969-.605,4.092-.593,6.049-1.237,2.754-.907,4.913-3.012,7.306-4.651a24.08,24.08,0,0,1,6.907-3.26c2.212-.639,4.815-.885,6.618.547,1.517,1.206,2.044,3.272,3.3,4.75,1.459,1.72,3.725,2.465,5.7,3.547a17.4,17.4,0,0,1,8.83,13.6,2.4,2.4,0,0,1-.709,2.29,2.532,2.532,0,0,1-1.424.26c-9.989-.143-19.991-.286-29.939-1.2a71.83,71.83,0,0,0-9.295-.528,30.405,30.405,0,0,0-13.686,3.862" transform="translate(153.957 -44.892)"/>
            </g>
          </g>
        </g>
      </g>
    </g>
    <path id="Path_5982" data-name="Path 5982" d="M257.123,652.159c0,33.96-20.189,45.819-45.092,45.819-.58,0-1.156-.006-1.73-.022-1.153-.025-2.3-.075-3.425-.157-22.477-1.589-39.939-14.059-39.939-45.64,0-32.681,41.757-73.921,44.907-76.983l.006,0c.119-.119.182-.179.182-.179S257.123,618.2,257.123,652.159Z" transform="translate(-1978.898 -1559.534)" fill="#3f3d56"/>
    <path id="Path_5983" data-name="Path 5983" d="M218.8,692.781l16.494-23.044L218.756,695.31l-.044,2.645c-1.153-.025-2.3-.075-3.425-.157l1.777-33.976-.013-.263.031-.05.166-3.209-16.576-25.639L217.3,657.894l.041.68,1.344-25.671-14.191-26.492,14.363,21.982,1.4-53.218.006-.182v.179l-.232,41.967L234.154,600.5l-14.184,20.252-.373,22.985,13.191-22.057L219.54,647.122l-.207,12.777,19.149-30.7-19.221,35.163Z" transform="translate(-1987.309 -1559.534)" fill="#f2f2f2"/>
    <rect id="Rectangle_106" data-name="Rectangle 106" width="115.669" height="49.221" rx="24.61" transform="translate(-1824.823 -874.816)" fill="#738ed3"/>
  </g>
</svg>
