<svg id="skills-img" xmlns="http://www.w3.org/2000/svg" width="1042.884" height="841" viewBox="0 0 1042.884 841">
  <ellipse id="Ellipse_129" data-name="Ellipse 129" cx="521.442" cy="35" rx="521.442" ry="35" transform="translate(0 771)" fill="#3f3d56"/>
  <ellipse id="Ellipse_130" data-name="Ellipse 130" cx="341" cy="26" rx="341" ry="26" transform="translate(304.884 777)" opacity="0.1"/>
  <path id="Path_6146" data-name="Path 6146" d="M269.917,736.233l5.339,61.4,24.026,5.339,5.339-16.017s-9.343-44.048-9.343-52.056Z" transform="translate(-78.558 -29.5)" fill="#ea9671"/>
  <path id="Path_6147" data-name="Path 6147" d="M336.656,693.52s-10.678,26.7-14.683,29.365,12.013,37.374,12.013,37.374l24.026-4s-8.009-28.03-1.335-44.048Z" transform="translate(-78.558 -29.5)" fill="#ea9671"/>
  <path id="Path_6148" data-name="Path 6148" d="M329.315,708.87S319.3,712.207,315.3,726.89s-4,16.017-4,16.017l6.674,14.683h4s6.674,22.691,5.339,30.7,9.343,38.709,28.03,37.374,14.683-24.026,14.683-24.026l-9.343-46.717s0-12.013-2.67-12.013-24.026,4-24.026,4v4S318.637,730.227,329.315,708.87Z" transform="translate(-78.558 -29.5)" fill="#2f2e41"/>
  <path id="Path_6149" data-name="Path 6149" d="M295.278,790.959v-8.009s-28.03,4-28.03,8.009V800.3s-24.026,50.722,2.67,50.722,32.035-10.678,32.035-10.678V825.664S315.3,818.99,315.3,814.985s-13.025-39.377-13.025-39.377S301.952,796.3,295.278,790.959Z" transform="translate(-78.558 -29.5)" fill="#2f2e41"/>
  <circle id="Ellipse_131" data-name="Ellipse 131" cx="42.713" cy="42.713" r="42.713" transform="translate(141.973 15.317)" fill="#ea9671"/>
  <path id="Path_6150" data-name="Path 6150" d="M246.559,120.232s5.339,25.361,5.339,28.03,25.361,14.683,25.361,14.683l22.691-4,8.009-24.026s-13.348-20.022-13.348-28.03Z" transform="translate(-78.558 -29.5)" fill="#ea9671"/>
  <path id="Path_6151" data-name="Path 6151" d="M250.132,137.829s13.779,22.447,33.8,15.773a27.612,27.612,0,0,0,19.586-25.812l65.84,23.142-12.013,97.439,10.678,113.456-8.009,14.683H242.554s-4-20.022-5.339-20.022-4-4-2.67-5.339,4-2.67,2.67-6.674-2.67-48.052-2.67-48.052L194.5,180.3Z" transform="translate(-78.558 -29.5)" fill="#738ed3"/>
  <path id="Path_6152" data-name="Path 6152" d="M199.174,391.86,223.2,423.895s4-33.37,9.343-34.7L219.2,379.847Z" transform="translate(-78.558 -29.5)" fill="#ea9671"/>
  <path id="Path_6153" data-name="Path 6153" d="M466.13,366.5s36.039,22.691,32.035,37.374-45.383-25.361-45.383-26.7S466.13,366.5,466.13,366.5Z" transform="translate(-78.558 -29.5)" fill="#ea9671"/>
  <path id="Path_6154" data-name="Path 6154" d="M241.887,366.5h-2.67l-4,18.687s-21.356,18.687-10.678,48.052L245.891,573.39l2.67,162.843,24.026,6.674,26.7-5.339L305.956,520s9.343-20.022,5.339-26.7,1.335-5.339,1.335-5.339l28.03,77.417s-9.343,25.361,0,33.37c0,0-1.335,4,0,5.339s8.009,6.674,5.339,9.343-4,0-4,4-13.348,37.374-8.009,80.087l17.352,26.7,16.017-9.343,29.365-82.756s-6.674-12.013,0-14.683,8.009-5.339,5.339-9.343-2.67-17.352,1.335-24.026,0-17.352,0-17.352L388.713,431.9s6.674-36.039-16.017-54.726l-4-14.683S335.322,386.521,241.887,366.5Z" transform="translate(-78.558 -29.5)" fill="#2f2e41"/>
  <path id="Path_6155" data-name="Path 6155" d="M226.2,53.118s13.561-29.383,39.554-22.6S306.44,47.467,307.57,57.638s-.565,25.427-.565,25.427S304.18,62.159,286.1,66.679s-46.334,1.13-46.334,1.13l-4.52,40.684s-5.085-7.346-10.736-2.825S208.121,62.159,226.2,53.118Z" transform="translate(-78.558 -29.5)" fill="#2f2e41"/>
  <path id="Path_6156" data-name="Path 6156" d="M214.524,180.3H194.5S177.15,194.98,178.485,223.01l-9.343,78.752s0,38.709,16.017,66.739l17.352,33.369s6.674-18.687,26.7-16.017l-10.678-28.03v-6.674s-4-5.339-4-6.674,5.339-1.335,1.335-4-8.009-29.365-8.009-29.365,1.335-5.339,2.67-6.674-1.335-5.339-1.335-5.339l2.67-4,17.352-65.4Z" transform="translate(-78.558 -29.5)" fill="#738ed3"/>
  <path id="Path_6157" data-name="Path 6157" d="M346.667,146.928l22.691,4s13.348,13.348,18.687,29.365l10.678,48.052,17.352,34.7s20.022,20.022,34.7,65.4L472.137,368.5l-22.691,13.348s-62.735-73.413-70.743-98.774L344,216.337Z" transform="translate(-78.558 -29.5)" fill="#738ed3"/>
  <rect id="Rectangle_133" data-name="Rectangle 133" width="547" height="493" transform="translate(394.884 316)" fill="#3f3d56"/>
  <rect id="Rectangle_134" data-name="Rectangle 134" width="15.294" height="367" transform="translate(387.456 386)" fill="#738ed3"/>
  <rect id="Rectangle_135" data-name="Rectangle 135" width="71" height="2" transform="translate(731.384 388.5)" fill="#f2f2f2"/>
  <rect id="Rectangle_136" data-name="Rectangle 136" width="72" height="12" transform="translate(731.384 372.5)" fill="#f2f2f2"/>
  <path id="Path_6158" data-name="Path 6158" d="M804.384,752.5h-46v-26h33.25v2h-31.25v22h42V737.965h2Z" fill="#f2f2f2"/>
  <rect id="Rectangle_137" data-name="Rectangle 137" width="331" height="8" transform="translate(471.384 430.5)" fill="#f2f2f2"/>
  <rect id="Rectangle_138" data-name="Rectangle 138" width="331" height="8" transform="translate(471.384 467.5)" fill="#f2f2f2"/>
  <rect id="Rectangle_139" data-name="Rectangle 139" width="331" height="8" transform="translate(471.384 504.5)" fill="#f2f2f2"/>
  <rect id="Rectangle_140" data-name="Rectangle 140" width="331" height="8" transform="translate(471.384 541.5)" fill="#f2f2f2"/>
  <rect id="Rectangle_141" data-name="Rectangle 141" width="331" height="8" transform="translate(471.384 578.5)" fill="#f2f2f2"/>
  <rect id="Rectangle_142" data-name="Rectangle 142" width="331" height="8" transform="translate(471.384 615.5)" fill="#f2f2f2"/>
  <rect id="Rectangle_143" data-name="Rectangle 143" width="331" height="8" transform="translate(471.384 652.5)" fill="#f2f2f2"/>
  <rect id="Rectangle_144" data-name="Rectangle 144" width="331" height="8" transform="translate(471.384 689.5)" fill="#f2f2f2"/>
  <circle id="Ellipse_132" data-name="Ellipse 132" cx="13" cy="13" r="13" transform="translate(839.384 421.5)" fill="#f55f44"/>
  <circle id="Ellipse_133" data-name="Ellipse 133" cx="13" cy="13" r="13" transform="translate(839.384 458.5)" fill="#738ed3"/>
  <circle id="Ellipse_134" data-name="Ellipse 134" cx="13" cy="13" r="13" transform="translate(839.384 495.5)" fill="#f55f44"/>
  <circle id="Ellipse_135" data-name="Ellipse 135" cx="13" cy="13" r="13" transform="translate(839.384 532.5)" fill="#738ed3"/>
  <circle id="Ellipse_136" data-name="Ellipse 136" cx="13" cy="13" r="13" transform="translate(839.384 569.5)" fill="#738ed3"/>
  <circle id="Ellipse_137" data-name="Ellipse 137" cx="13" cy="13" r="13" transform="translate(839.384 606.5)" fill="#738ed3"/>
  <circle id="Ellipse_138" data-name="Ellipse 138" cx="13" cy="13" r="13" transform="translate(839.384 643.5)" fill="#f55f44"/>
  <circle id="Ellipse_139" data-name="Ellipse 139" cx="13" cy="13" r="13" transform="translate(839.384 680.5)" fill="#f55f44"/>
  <path id="Path_6159" data-name="Path 6159" d="M781.884,746.414l-11.207-11.207,1.414-1.414,9.793,9.793,29.293-29.293,1.414,1.414Z" fill="#738ed3"/>
  <ellipse id="Ellipse_140" data-name="Ellipse 140" cx="69" cy="4" rx="69" ry="4" transform="translate(712.884 763)" opacity="0.1"/>
  <path id="Path_6160" data-name="Path 6160" d="M160.146,823.521c-.229-.375-5.641-9.41-7.517-28.172-1.721-17.213-.614-46.227,14.433-86.7,28.506-76.671-6.569-138.533-6.928-139.149l1.73-1c.091.156,9.142,15.929,14.488,41.044a179.061,179.061,0,0,1-7.416,99.807c-28.457,76.54-7.3,112.773-7.084,113.131Z" transform="translate(-78.558 -29.5)" fill="#3f3d56"/>
  <circle id="Ellipse_141" data-name="Ellipse 141" cx="13" cy="13" r="13" transform="translate(57.442 509.5)" fill="#738ed3"/>
  <circle id="Ellipse_142" data-name="Ellipse 142" cx="13" cy="13" r="13" transform="translate(98.442 557.5)" fill="#738ed3"/>
  <circle id="Ellipse_143" data-name="Ellipse 143" cx="13" cy="13" r="13" transform="translate(70.442 589.5)" fill="#738ed3"/>
  <circle id="Ellipse_144" data-name="Ellipse 144" cx="13" cy="13" r="13" transform="translate(104.442 616.5)" fill="#738ed3"/>
  <circle id="Ellipse_145" data-name="Ellipse 145" cx="13" cy="13" r="13" transform="translate(60.442 658.5)" fill="#738ed3"/>
  <path id="Path_6161" data-name="Path 6161" d="M168,824s-13-32,26-56Z" transform="translate(-78.558 -29.5)" fill="#3f3d56"/>
  <path id="Path_6162" data-name="Path 6162" d="M152.012,823.42S146.1,789.39,100.3,789.682Z" transform="translate(-78.558 -29.5)" fill="#3f3d56"/>
</svg>
